<svg width="826" height="507" viewBox="0 0 826 507" fill="none" xmlns="http://www.w3.org/2000/svg">
<g clip-path="url(#clip0_1_2)">
<path d="M438.22 378.66C436.45 389.37 427.13 397.57 415.93 397.57C404.73 397.57 395.4 389.37 393.64 378.66H336.6V502.27H495.26V378.66L438.22 378.66Z" fill="#D9D9D9"/>
<path d="M355.04 501.81H339.36V504.58H355.04V501.81Z" fill="#B6B3C5"/>
<path d="M493.87 502.27H478.19V505.04H493.87V502.27Z" fill="#B6B3C5"/>
<path d="M735.01 381.89H96.85C91.97 381.89 88 377.92 88 373.04V8.85C88 3.97 91.97 0 96.85 0H735.01C739.89 0 743.86 3.97 743.86 8.85V373.05C743.86 377.93 739.89 381.9 735.01 381.9L735.01 381.89Z" fill="#2F2E41"/>
<path d="M728.63 15.68H104.14V368.05H728.63V15.68Z" fill="white"/>
<path d="M0 505.53C0 506.03 0.39999 506.44 0.91 506.44H824.94C825.44 506.44 825.85 506.04 825.85 505.53C825.85 505.02 825.45 504.62 824.94 504.62H0.91C0.41 504.62 0 505.02 0 505.53Z" fill="#2F2E43"/>
<path d="M316.711 100.615L246.105 295H217.248L298.547 81.7188H317.15L316.711 100.615ZM375.891 295L305.139 100.615L304.699 81.7188H323.303L404.895 295H375.891ZM372.229 216.045V239.189H252.404V216.045H372.229ZM589.318 188.799V266.875C586.682 270.781 582.482 275.176 576.721 280.059C570.959 284.844 563 289.043 552.844 292.656C542.785 296.172 529.797 297.93 513.879 297.93C500.891 297.93 488.928 295.684 477.99 291.191C467.15 286.602 457.727 279.961 449.719 271.27C441.809 262.48 435.656 251.836 431.262 239.336C426.965 226.738 424.816 212.48 424.816 196.562V180.01C424.816 164.092 426.672 149.883 430.383 137.383C434.191 124.883 439.758 114.287 447.082 105.596C454.406 96.8066 463.391 90.166 474.035 85.6738C484.68 81.084 496.887 78.7891 510.656 78.7891C526.965 78.7891 540.588 81.6211 551.525 87.2852C562.561 92.8516 571.154 100.566 577.307 110.43C583.557 120.293 587.561 131.523 589.318 144.121H561.047C559.777 136.406 557.238 129.375 553.43 123.027C549.719 116.68 544.396 111.602 537.463 107.793C530.529 103.887 521.594 101.934 510.656 101.934C500.793 101.934 492.248 103.74 485.021 107.354C477.795 110.967 471.838 116.143 467.15 122.881C462.463 129.619 458.947 137.773 456.604 147.344C454.357 156.914 453.234 167.705 453.234 179.717V196.562C453.234 208.867 454.65 219.854 457.482 229.521C460.412 239.189 464.562 247.441 469.934 254.277C475.305 261.016 481.701 266.143 489.123 269.658C496.643 273.174 504.943 274.932 514.025 274.932C524.084 274.932 532.238 274.102 538.488 272.441C544.738 270.684 549.621 268.633 553.137 266.289C556.652 263.848 559.338 261.553 561.193 259.404V211.65H511.828V188.799H589.318Z" fill="#2F2E41"/>
</g>
<defs>
<clipPath id="clip0_1_2">
<rect width="825.85" height="506.44" fill="white"/>
</clipPath>
</defs>
</svg>
